HIERARCHY
ROOT Hips
{
  OFFSET 43.0842 91.1655 101.099
  CHANNELS 6 Xposition Yposition Zposition Zrotation Xrotation Yrotation
  JOINT LeftUpLeg
  {
    OFFSET 8.64259 1.95398 -2.38835
    CHANNELS 3 Zrotation Xrotation Yrotation
    JOINT LeftLeg
    {
      OFFSET 43.7702 0 0
      CHANNELS 3 Zrotation Xrotation Yrotation
      JOINT LeftFoot
      {
        OFFSET 40.6238 0 0
        CHANNELS 3 Zrotation Xrotation Yrotation
        JOINT LeftToeBase
        {
          OFFSET 12.7242 0 0
          CHANNELS 3 Zrotation Xrotation Yrotation
          End Site
          {
            OFFSET 0 0 0
          }
        }
      }
    }
  }
  JOINT RightUpLeg
  {
    OFFSET -8.2249 1.95398 -2.59336
    CHANNELS 3 Zrotation Xrotation Yrotation
    JOINT RightLeg
    {
      OFFSET 43.5653 0 0
      CHANNELS 3 Zrotation Xrotation Yrotation
      JOINT RightFoot
      {
        OFFSET 40.6238 0 0
        CHANNELS 3 Zrotation Xrotation Yrotation
        JOINT RightToeBase
        {
          OFFSET 12.7242 0 0
          CHANNELS 3 Zrotation Xrotation Yrotation
          End Site
          {
            OFFSET 0 0 0
          }
        }
      }
    }
  }
  JOINT Spine
  {
    OFFSET 0.165834 0.87714 6.61349
    CHANNELS 3 Zrotation Xrotation Yrotation
    JOINT Spine1
    {
      OFFSET 7.38963 1.71661e-005 0
      CHANNELS 3 Zrotation Xrotation Yrotation
      JOINT Spine2
      {
        OFFSET 11.9445 1.14441e-005 0
        CHANNELS 3 Zrotation Xrotation Yrotation
        JOINT Spine3
        {
          OFFSET 14.7254 4.19617e-005 0
          CHANNELS 3 Zrotation Xrotation Yrotation
          JOINT Spine4
          {
            OFFSET 10.9679 0 0
            CHANNELS 3 Zrotation Xrotation Yrotation
            JOINT RightShoulder
            {
              OFFSET 2.46616 -1.6653 3.69651
              CHANNELS 3 Zrotation Xrotation Yrotation
              JOINT RightArm
              {
                OFFSET 13.0012 0 0
                CHANNELS 3 Zrotation Xrotation Yrotation
                JOINT RightForeArm
                {
                  OFFSET 28.7848 1.52588e-005 0
                  CHANNELS 3 Zrotation Xrotation Yrotation
                  JOINT RightHand
                  {
                    OFFSET 26.5688 1.52588e-005 0
                    CHANNELS 3 Zrotation Xrotation Yrotation
                    End Site
                    {
                      OFFSET 0 0 0
                    }
                  }
                }
              }
            }
            JOINT LeftShoulder
            {
              OFFSET 2.38034 -1.29275 -3.7523
              CHANNELS 3 Zrotation Xrotation Yrotation
              JOINT LeftArm
              {
                OFFSET 16.3182 6.10351e-005 0
                CHANNELS 3 Zrotation Xrotation Yrotation
                JOINT LeftForeArm
                {
                  OFFSET 27.0901 0 0
                  CHANNELS 3 Zrotation Xrotation Yrotation
                  JOINT LeftHand
                  {
                    OFFSET 24.5451 1.52588e-005 0
                    CHANNELS 3 Zrotation Xrotation Yrotation
                    End Site
                    {
                      OFFSET 0 0 0
                    }
                  }
                }
              }
            }
            JOINT Neck
            {
              OFFSET 5.0226 -0.0266342 0
              CHANNELS 3 Zrotation Xrotation Yrotation
              JOINT Head
              {
                OFFSET 6.69364 2.86102e-005 0
                CHANNELS 3 Zrotation Xrotation Yrotation
                End Site
                {
                  OFFSET 0 0 0
                }
              }
            }
          }
        }
      }
    }
  }
}
MOTION
Frames:	11
Frame Time:	0.0333333
34.2633 89.4432 1.25935 -95.8969 -31.2302 -95.786 -171.7 20.5924 99.5044 -29.4617 18.0729 -2.93628 58.3112 -2.9532 7.52384 31.4539 3.51035 -0.167473 165.557 6.36995 76.4604 -36.1901 -1.65293 -0.616098 67.3749 -2.78882 -13.0014 43.2853 -7.12501 -3.90275 0.733038 7.58419 -90.1499 11.7089 1.38772 -0.444479 0.0385532 1.3668 -0.505146 -22.5025 1.45714 -0.00677622 -2.4899 1.45712 -0.00678903 92.8979 -44.1233 -97.494 5.42875 -28.5781 -65.0478 -9.25166 -3.35142 -97.9302 -14.3258 -2.67734 7.36732 -110.122 -61.1991 54.7835 3.92422 -51.3568 -20.2115 0.56164 15.458 -76.59 22.2211 2.72093 2.4887 -20.4686 16.4583 16.596 -1.67961 17.58 12.4041 
34.1407 89.4283 1.23731 -95.8165 -31.0695 -95.7649 -171.539 20.5191 99.591 -29.3567 18.0787 -3.03539 58.3078 -2.99371 7.5023 31.6199 3.69198 -0.120119 165.543 6.46164 76.5144 -36.2348 -1.38023 -0.622075 67.5709 -3.07566 -12.7941 43.2805 -7.06713 -4.18133 0.763637 7.57888 -90.1326 11.7196 1.45658 -0.417391 0.0493831 1.4368 -0.481116 -22.4923 1.51468 0.0397705 -2.47967 1.51466 0.03976 92.8172 -44.1125 -97.63 6.33644 -27.98 -64.7154 -9.86218 -3.96653 -97.4914 -14.056 -2.58863 7.03744 -109.925 -61.1244 55.0009 3.65795 -51.0833 -20.3351 0.62699 15.6214 -76.6556 22.8134 2.81927 2.55145 -20.2975 16.5202 16.4024 -1.71411 17.602 12.3624 
34.0028 89.3719 1.18542 -95.5829 -30.8426 -95.7665 -171.364 20.4948 99.6005 -29.1893 17.8891 -3.19821 58.3411 -3.04126 7.55434 31.8843 4.1699 -0.389055 165.499 6.74213 76.5436 -36.4163 -1.29705 -0.610596 68.0899 -3.75595 -12.8939 42.7599 -6.72903 -4.37676 0.811002 7.56591 -90.1048 11.7455 1.56381 -0.373808 0.0753732 1.54584 -0.442295 -22.4673 1.60383 0.113582 -2.45469 1.60384 0.11358 92.8522 -43.6742 -97.6624 8.1943 -26.6669 -64.0225 -11.3091 -5.25574 -96.7558 -14.128 -2.6158 6.36628 -109.735 -61.107 55.2339 2.97382 -50.4956 -20.8125 0.517884 15.6468 -76.7285 23.7255 2.97654 2.87168 -19.9911 16.4747 16.3655 -1.65149 17.5051 12.1402 
33.87 89.3349 1.11473 -95.278 -30.6699 -95.7568 -171.392 20.6034 99.5951 -29.2106 17.1426 -3.22852 58.597 -2.7676 7.23321 31.9212 4.31051 -0.566104 165.488 6.97454 76.5119 -36.5176 -2.2402 -0.597254 68.5745 -4.49714 -13.402 42.2238 -6.34576 -4.72752 0.853489 7.55132 -90.0402 11.7745 1.67862 -0.25761 0.104596 1.66566 -0.331268 -22.4392 1.6784 0.258937 -2.42655 1.6784 0.258934 92.8505 -43.7774 -97.644 9.29066 -24.5808 -62.7212 -13.2524 -6.39376 -96.419 -13.4111 -2.38326 6.16207 -108.484 -60.7047 56.6571 0.684023 -49.5161 -22.4756 1.12693 15.4675 -76.7254 24.4192 3.09119 2.83691 -18.9683 16.6888 15.5293 -2.30647 17.4727 12.1748 
33.709 89.3054 1.05237 -95.1444 -30.2489 -95.9115 -171.214 20.352 99.5423 -29.0562 15.3836 -3.24216 58.6848 -2.55559 6.29687 32.4779 4.86149 -0.310403 165.41 7.41375 76.3007 -36.9589 -2.60044 -0.640978 68.8781 -4.97327 -13.3373 42.1367 -6.29459 -4.73036 0.938651 7.53162 -89.9472 11.8128 1.89156 -0.0957936 0.14324 1.8855 -0.178987 -22.4025 1.83288 0.477325 -2.38983 1.83285 0.47732 92.8901 -44.0896 -97.5137 9.76694 -22.1755 -59.9156 -14.7373 -6.73219 -96.6966 -14.2105 -2.64439 6.68014 -107.449 -60.3309 57.8278 -1.84082 -47.8667 -24.7596 2.82026 15.0416 -76.8132 25.2165 3.23317 3.00355 -18.3084 16.9276 14.4913 -2.55202 17.5574 11.9391 
33.5213 89.2392 1.06887 -94.8601 -29.5425 -96.1322 -170.874 19.8124 99.3628 -28.6583 13.4192 -3.35039 59.0835 -1.71196 4.97219 33.2736 5.27429 0.813754 165.496 8.13809 75.9659 -37.5667 -3.07788 -0.813113 69.082 -5.22579 -13.4607 42.4547 -6.58233 -4.23546 1.02237 7.47991 -89.8513 11.9154 2.10301 0.0699445 0.246183 2.10404 -0.0227252 -22.3015 1.98472 0.699003 -2.28888 1.98472 0.699002 93.0111 -44.3603 -97.259 10.6214 -19.0524 -54.9152 -15.385 -6.80891 -98.0631 -14.9098 -2.87219 6.8021 -107.46 -60.3656 57.8287 -3.14347 -46.6317 -26.5125 4.53858 14.7601 -77.4922 25.5795 3.31061 3.582 -18.2999 17.0463 14.351 -2.15117 17.6995 11.0469 
33.2228 89.2028 1.20858 -94.1181 -27.5354 -95.9956 -170.466 19.4776 99.5567 -29.0211 12.2128 -3.5284 59.6431 -0.956689 3.97949 33.65 5.25693 1.75758 166.648 8.9492 76.0964 -37.9148 -4.81361 -1.64655 69.15 -5.50184 -14.0925 42.1124 -6.40935 -4.1194 1.054 7.40667 -89.7621 12.0601 2.2077 0.23281 0.391023 2.21579 0.135364 -22.1573 2.0356 0.885815 -2.14461 2.03562 0.885814 93.0428 -45.1044 -97.0585 10.7176 -16.1025 -49.0576 -16.6957 -6.25055 -100.93 -13.7735 -2.4955 6.90553 -106.798 -60.2968 58.6505 -4.20926 -48.568 -27.265 4.87559 16.5404 -79.615 26.0576 3.40816 3.94922 -17.5028 17.8782 15.2526 -2.62683 18.371 10.0502 
32.8994 89.0822 1.51851 -93.1186 -22.9677 -95.3952 -170.78 19.4254 100.316 -31.3817 14.2896 -2.93265 59.0168 -2.17308 5.0083 34.8115 6.5213 2.14614 169.227 10.2346 76.7752 -38.347 -5.84649 -3.37002 69.2534 -5.80739 -13.471 41.964 -6.4699 -3.42997 1.08083 7.32385 -89.7181 12.2249 2.28167 0.307474 0.555905 2.29299 0.206691 -21.9929 2.08373 0.979276 -1.98025 2.08374 0.979274 93.121 -45.6463 -96.8254 10.4283 -13.6829 -42.5796 -18.0357 -4.94066 -104.767 -11.6323 -1.77833 7.2278 -104.814 -59.7105 60.9932 -5.7268 -52.3536 -26.9915 4.8792 17.8681 -84.0379 28.079 3.81536 4.73197 -16.5173 19.4902 16.8449 -3.02857 19.8099 9.80049 
32.4202 88.8458 2.04215 -92.3189 -15.5153 -93.1717 -171.2 19.9588 101.928 -37.5194 18.7151 -1.58469 57.796 -4.33971 6.65763 36.6891 7.14406 5.96781 172.594 11.4769 77.7433 -38.5058 -6.85278 -5.50709 69.8221 -6.50064 -10.8771 42.362 -6.97118 -2.09269 1.12012 7.25943 -89.7979 12.3564 2.32195 0.140275 0.687538 2.32587 0.0378775 -21.8627 2.1724 0.831956 -1.85003 2.17239 0.831949 93.1691 -45.4782 -96.7795 9.60012 -12.5726 -36.3408 -20.8642 -2.85465 -107.558 -10.6232 -1.44205 7.16811 -102.431 -58.9889 63.8505 -4.54887 -56.5543 -23.1798 4.14632 17.2398 -89.6807 30.3095 4.28998 5.5549 -16.1406 21.1324 19.3759 -2.64706 21.3994 9.27985 
31.7172 88.6183 2.55351 -92.7931 -2.99036 -94.2615 -170.92 20.9182 104.908 -47.0015 22.7907 0.146628 55.8037 -7.64755 6.73835 37.6852 5.93303 11.1349 175.902 12.187 79.182 -38.1847 -7.95978 -7.53781 70.6073 -7.18328 -6.29536 43.1158 -7.83596 0.260392 1.19449 7.21755 -89.9799 12.444 2.38304 -0.232984 0.775231 2.37045 -0.337707 -21.777 2.34281 0.494393 -1.76439 2.3428 0.494381 93.4213 -45.1937 -96.4216 8.93486 -13.097 -31.1621 -23.9208 -1.19758 -107.866 -10.7569 -1.51324 6.54226 -99.4547 -57.9236 67.4616 -1.60251 -60.9921 -18.0606 3.11337 16.5377 -94.7479 30.389 4.36558 6.3947 -16.4854 20.7694 21.1597 -1.61174 21.1516 7.47071 
30.9312 88.2844 2.95974 -93.8612 4.18522 -92.9685 -172.115 20.9249 107.366 -57.8919 28.4886 2.90091 53.2502 -12.0855 6.88324 34.8241 0.68933 12.4843 179.146 13.1767 80.611 -38.6857 -9.04761 -9.64333 71.1079 -7.35258 -1.08758 44.6434 -9.05164 2.74493 1.2388 7.1927 -90.1126 12.4964 2.40735 -0.502737 0.82751 2.3829 -0.608267 -21.7255 2.44708 0.244458 -1.71287 2.44711 0.244456 93.7667 -44.9434 -95.9011 8.27305 -13.2686 -26.4591 -23.9589 -0.799646 -106.695 -9.87899 -1.25367 5.85011 -96.0575 -55.8793 71.4812 -0.0303961 -64.0956 -15.5777 2.76171 15.9457 -97.8516 30.0742 4.30909 6.45754 -17.025 17.5216 20.7227 -0.0948641 18.0108 4.74227 
